<?xml version="1.0" standalone="no"?>
<!DOCTYPE svg PUBLIC "-//W3C//DTD SVG 1.1//EN" "http://www.w3.org/Graphics/SVG/1.1/DTD/svg11.dtd" >
<svg xmlns="http://www.w3.org/2000/svg" xmlns:xlink="http://www.w3.org/1999/xlink" version="1.1">
<metadata></metadata>
<defs>
<font id="truenoregular_italic" horiz-adv-x="1019" >
<font-face units-per-em="2048" ascent="1638" descent="-410" />
<missing-glyph horiz-adv-x="528" />
<glyph unicode="&#xfb01;" horiz-adv-x="1284" d="M202 874l25 177h144l15 104q13 94 56.5 168t104 118t128.5 66.5t139 22.5q117 0 196 -49l-38 -205q-96 47 -181 47q-148 0 -169 -145l-18 -127h285l-26 -177h-284l-126 -874h-234l126 874h-143zM877 0l157 1090h233l-157 -1090h-233zM1058 1401q9 62 54 102.5t104 40.5 t92 -40t24 -103q-9 -61 -53.5 -101t-103.5 -40t-92.5 40t-24.5 101z" />
<glyph unicode="&#xfb02;" horiz-adv-x="1333" d="M202 877l27 174h142l19 133q22 158 142 258t286 98q122 -3 196 -47l-36 -205q-61 53 -144 53q-81 2 -142 -52t-74 -140l-14 -98h287l-27 -174h-285l-126 -877h-234l126 877h-143zM913 0l219 1520h236l-219 -1520h-236z" />
<glyph horiz-adv-x="0" />
<glyph horiz-adv-x="682" />
<glyph unicode=" "  horiz-adv-x="528" />
<glyph unicode="&#x09;" horiz-adv-x="528" />
<glyph unicode="&#xa0;" horiz-adv-x="528" />
<glyph unicode="!" horiz-adv-x="430" d="M134 119q8 58 50 95.5t98 37.5t87 -37.5t23 -95.5q-9 -60 -51 -98.5t-98 -38.5t-87 38.5t-22 98.5zM236 457l50 606l51 352h223l-50 -352l-125 -606h-149z" />
<glyph unicode="&#x22;" horiz-adv-x="741" d="M257 930l72 504h181l-73 -504h-180zM572 930l73 504h180l-73 -504h-180z" />
<glyph unicode="#" horiz-adv-x="1484" d="M106 354l42 176h293l95 361h-285l42 176h291l98 367h174l-98 -367h362l98 367h174l-98 -367h285l-40 -176h-292l-97 -361h286l-41 -176h-291l-96 -354h-172l94 354h-363l-96 -354h-172l94 354h-287zM613 530h365l95 361h-363z" />
<glyph unicode="$" horiz-adv-x="1271" d="M85 219l134 209q79 -83 177.5 -135.5t199.5 -67.5l59 410q-73 23 -118.5 40t-104.5 51.5t-89.5 74t-48 102.5t-6.5 141q24 163 154 267.5t328 126.5l39 270h181l-39 -268q232 -21 397 -144l-131 -213q-142 95 -300 123l-54 -379q76 -24 121.5 -41.5t107 -53t92.5 -75.5 t48.5 -105t5.5 -146q-24 -168 -158.5 -276t-336.5 -132l-41 -289h-181l42 287q-142 12 -266 71t-212 152zM561 1067q-17 -116 130 -178l47 321q-76 -12 -122.5 -49t-54.5 -94zM776 227q84 17 133.5 59.5t58.5 106.5q10 68 -27 111.5t-114 75.5z" />
<glyph unicode="%" horiz-adv-x="1992" d="M224 1012q28 199 145.5 312.5t294.5 113.5t261.5 -113t55.5 -313q-29 -201 -146 -315.5t-294 -114.5t-261.5 114.5t-55.5 315.5zM348 0l1261 1434h226l-1260 -1434h-227zM381 1012q-20 -138 27 -214.5t153 -76.5t175.5 76.5t89.5 214.5q19 136 -28.5 211t-153.5 75 t-175 -75t-88 -211zM1218 424q28 199 145.5 312.5t294.5 113.5t261.5 -113.5t56.5 -312.5q-29 -201 -146.5 -314.5t-294.5 -113.5t-261.5 113.5t-55.5 314.5zM1376 424q-20 -138 26.5 -213.5t152.5 -75.5t175.5 75.5t89.5 213.5q20 137 -27.5 213t-153.5 76q-105 0 -174 -76 t-89 -213z" />
<glyph unicode="&#x26;" horiz-adv-x="1357" d="M173 391q10 73 43.5 134.5t87.5 109.5t108 82t128 71q-111 186 -90 332q20 143 136.5 233.5t283.5 90.5q161 0 249.5 -84t69.5 -217q-10 -70 -46 -129t-99 -107.5t-118 -80.5t-142 -74q84 -114 256 -312q91 113 167 258l137 -114q-94 -166 -189 -273l201 -227l-139 -123 l-192 219q-226 -190 -459 -190q-126 0 -222 51.5t-141.5 143.5t-29.5 206zM370 410q-16 -106 51 -174t179 -68q152 0 315 139q-200 233 -296 363q-110 -58 -173.5 -118.5t-75.5 -141.5zM637 1122q-16 -109 70 -254q65 31 108.5 56t87 59t68.5 73t31 85q10 70 -31 112.5 t-121 42.5q-85 0 -143.5 -49.5t-69.5 -124.5z" />
<glyph unicode="'" horiz-adv-x="425" d="M257 930l72 504h181l-73 -504h-180z" />
<glyph unicode="(" horiz-adv-x="653" d="M243.5 149.5q-31.5 228.5 5.5 483.5t134.5 483.5t243.5 403.5h213q-140 -178 -237 -407.5t-133 -479.5q-35 -258 -5 -483.5t119 -403.5h-213q-96 175 -127.5 403.5z" />
<glyph unicode=")" horiz-adv-x="706" d="M207 -254q140 178 237 407.5t133 479.5q35 258 5 483.5t-119 403.5h213q96 -175 127.5 -403.5t-5.5 -483.5t-134.5 -483.5t-243.5 -403.5h-213z" />
<glyph unicode="*" horiz-adv-x="712" d="M203 1053l199 104l-170 100l81 117l166 -108l29 211h123l-33 -211l198 106l45 -115l-199 -100l169 -104l-78 -115l-166 109l-29 -211h-123l33 211l-198 -107z" />
<glyph unicode="+" d="M156 584l23 161h363l51 359h154l-52 -359h361l-24 -161h-360l-52 -359h-153l51 359h-362z" />
<glyph unicode="," horiz-adv-x="438" d="M50 -168l103 178q-50 38 -40 107q8 57 49.5 94t96.5 37q52 0 83.5 -36t22.5 -95q-8 -54 -53 -109l-142 -176h-120z" />
<glyph unicode="-" horiz-adv-x="753" d="M203 543l23 162h504l-23 -162h-504z" />
<glyph unicode="." horiz-adv-x="446" d="M111 119q8 58 50.5 95.5t98.5 37.5t86.5 -37.5t22.5 -95.5q-9 -60 -50.5 -98.5t-97.5 -38.5t-87.5 38.5t-22.5 98.5z" />
<glyph unicode="/" horiz-adv-x="677" d="M-78 -240l925 1911h201l-925 -1911h-201z" />
<glyph unicode="0" horiz-adv-x="1415" d="M202 717q50 349 234.5 536t479.5 187q293 0 423.5 -187t80.5 -536t-234.5 -536t-477.5 -187q-295 0 -425.5 187t-80.5 536zM449 717q-39 -270 32.5 -401.5t253.5 -131.5q181 0 289.5 131.5t147.5 401.5q39 272 -31.5 402t-251.5 130q-183 0 -292 -130t-148 -402z" />
<glyph unicode="1" horiz-adv-x="792" d="M202 1219l31 215h522l-206 -1434h-242l176 1219h-281z" />
<glyph unicode="2" horiz-adv-x="1204" d="M92 0l26 176l610 567q91 80 150 162.5t68 143.5q13 86 -43.5 135t-169.5 49q-93 0 -203 -48t-214 -132l-70 186q281 205 552 205q204 0 316.5 -99t88.5 -262q-27 -187 -330 -471l-430 -395h700l-31 -217h-1020z" />
<glyph unicode="3" horiz-adv-x="1103" d="M29 145l129 197q66 -72 156 -110.5t189 -38.5q141 0 230.5 66.5t105.5 178.5q16 116 -54.5 176t-214.5 60h-198l20 141l430 402h-573l31 215h872l-21 -152l-474 -442l73 -9q181 -15 276.5 -117t71.5 -268q-29 -203 -190 -328.5t-398 -125.5q-131 0 -255 42t-206 113z" />
<glyph unicode="4" horiz-adv-x="1226" d="M112 352l26 180l619 902h234l-590 -867h426l49 340h225l-49 -340h209l-31 -215h-208l-51 -352h-226l51 352h-684z" />
<glyph unicode="5" horiz-adv-x="1181" d="M76 156l124 196q75 -72 171.5 -111.5t193.5 -39.5q140 0 230 68.5t107 189.5q16 109 -54.5 172t-208.5 63q-204 0 -380 -18l109 758h873l-29 -217h-652l-44 -310l197 2q231 0 353.5 -122.5t95.5 -313.5q-32 -218 -195.5 -349.5t-404.5 -131.5q-126 0 -258 45t-228 119z " />
<glyph unicode="6" horiz-adv-x="1259" d="M197 688q50 344 247.5 550t480.5 206q106 0 219 -30t193 -79l-120 -182q-59 42 -140.5 66t-164.5 24q-204 0 -325 -139.5t-149 -378.5q145 203 421 203q214 0 319.5 -123.5t75.5 -333.5q-32 -222 -187.5 -351.5t-385.5 -129.5q-273 0 -402 184.5t-82 513.5zM439.5 389.5 q3.5 -37.5 23 -72t49.5 -61t78 -42t108 -15.5q133 0 223 72.5t108 201.5q18 123 -47 193.5t-196 70.5q-142 0 -236.5 -78.5t-109.5 -193.5q-4 -38 -0.5 -75.5z" />
<glyph unicode="7" horiz-adv-x="1167" d="M251 1217l31 217h1043l-27 -185l-751 -1249h-256l732 1217h-557l-31 -201z" />
<glyph unicode="8" horiz-adv-x="1282" d="M147 397q19 131 111.5 228.5t236.5 140.5q-98 48 -145 130t-32 185q24 168 167.5 265.5t363.5 97.5q222 0 337.5 -100t90.5 -271q-15 -103 -82 -182.5t-175 -124.5q126 -43 188.5 -139.5t43.5 -225.5q-28 -191 -192 -301t-420 -110q-254 0 -387 109t-106 298zM381 424 q-17 -117 57.5 -180.5t228.5 -63.5t248.5 63.5t110.5 180.5q17 113 -59.5 175.5t-230.5 62.5q-152 0 -245 -62.5t-110 -175.5zM519 1059q-14 -99 50.5 -154t194.5 -55q131 0 210.5 54.5t93.5 154.5t-50 155.5t-194 55.5q-129 0 -210 -55.5t-95 -155.5z" />
<glyph unicode="9" horiz-adv-x="1259" d="M141 98l121 183q60 -43 141 -67t163 -24q203 0 324.5 139.5t149.5 379.5q-145 -203 -420 -203q-214 0 -319.5 123.5t-75.5 333.5q32 222 187.5 351.5t385.5 129.5q272 0 401 -185t82 -514q-50 -344 -247 -549.5t-480 -205.5q-107 0 -220 29.5t-193 78.5zM450 961 q-18 -123 47 -194t195 -71q142 0 237 79t110 194q8 48 -3.5 94.5t-40.5 85.5t-85 62.5t-130 23.5q-132 0 -222 -72.5t-108 -201.5z" />
<glyph unicode=":" horiz-adv-x="434" d="M111 119q8 58 50.5 95.5t98.5 37.5t86.5 -37.5t22.5 -95.5q-9 -60 -50.5 -98.5t-97.5 -38.5t-87.5 38.5t-22.5 98.5zM199 727q8 58 50 95.5t98 37.5t87 -37.5t23 -95.5q-9 -60 -51 -98.5t-98 -38.5t-87 38.5t-22 98.5z" />
<glyph unicode=";" horiz-adv-x="442" d="M50 -168l103 178q-50 38 -40 107q8 57 49.5 94t96.5 37q52 0 83.5 -36t22.5 -95q-8 -54 -53 -109l-142 -176h-120zM199 727q8 58 50 95.5t98 37.5t87 -37.5t23 -95.5q-9 -60 -51 -98.5t-98 -38.5t-87 38.5t-22 98.5z" />
<glyph unicode="&#x3c;" d="M153 563l30 207l931 381l-26 -182l-762 -301l675 -303l-27 -183z" />
<glyph unicode="=" d="M125 369l23 161h877l-24 -161h-876zM187 799l23 162h877l-24 -162h-876z" />
<glyph unicode="&#x3e;" d="M99 193l27 182l762 301l-675 303l26 182l822 -381l-30 -207z" />
<glyph unicode="?" horiz-adv-x="907" d="M157 1016q34 194 162 300.5t320 106.5q188 0 286.5 -89t74.5 -253q-10 -66 -35.5 -121t-60 -94.5t-74 -75t-79 -68.5t-73 -68.5t-58.5 -83t-33 -103.5h-180q10 67 33.5 122.5t54 94t66 72t70 63.5t64 61.5t51.5 74t29 92.5q12 87 -37.5 131.5t-147.5 44.5 q-101 0 -165.5 -53t-83.5 -156zM316 119q8 58 50 95.5t98 37.5t87 -37.5t23 -95.5q-9 -60 -51 -98.5t-98 -38.5t-87 38.5t-22 98.5z" />
<glyph unicode="@" horiz-adv-x="1994" d="M148 547q36 248 189.5 452.5t386.5 321.5t493 117q195 0 355 -66.5t264 -182.5t150 -280t19 -352q-34 -230 -162.5 -370t-301.5 -140q-97 0 -153.5 41t-60.5 125l2 41q-75 -90 -173 -136t-206 -46q-125 0 -224 59t-149.5 170t-30.5 250q30 207 175.5 348t345.5 141 q119 0 203 -54t99 -99l19 133h221l-103 -715q-8 -56 13.5 -83t65.5 -27q77 0 149 101t94 255q30 204 -35.5 367t-221.5 258.5t-378 95.5q-210 0 -399.5 -96t-314.5 -262.5t-154 -366.5q-21 -147 17 -275.5t122.5 -219.5t213.5 -143t284 -52q97 0 210 31t203 89l62 -149 q-98 -63 -238.5 -102t-260.5 -39q-192 0 -352 65.5t-265 179t-152 273.5t-21 342zM787 561q-18 -121 42 -205t175 -84q119 0 202 82t101 205q17 118 -45 197.5t-181 79.5q-112 0 -194.5 -79.5t-99.5 -195.5z" />
<glyph unicode="A" horiz-adv-x="1511" d="M2 0l839 1434h248l420 -1434h-258l-90 324h-723l-184 -324h-252zM559 539h541l-179 637z" />
<glyph unicode="B" horiz-adv-x="1445" d="M188 0l207 1434h623q223 0 338 -96q95 -79 95 -207q0 -27 -4 -56q-17 -121 -97 -206t-201 -113q141 -26 209 -122q51 -74 51 -175q0 -32 -5 -66q-26 -184 -180.5 -288.5t-398.5 -104.5h-637zM461 215h369q142 0 229.5 54.5t101.5 154.5q2 15 2 28q0 75 -61 121 q-72 54 -213 54h-369zM551 840h369q116 0 188 50.5t85 141.5q2 16 2 32q0 66 -47 106q-58 48 -174 49h-368z" />
<glyph unicode="C" horiz-adv-x="1427" d="M173 719q29 201 152.5 366.5t310 260t395.5 94.5q152 0 287.5 -59t225.5 -162l-167 -177q-66 85 -165.5 134t-207.5 49q-215 0 -384.5 -146t-200.5 -358q-6 -39 -6 -77q0 -94 37 -178q51 -116 159 -183.5t249 -67.5q106 0 218 45.5t206 124.5l121 -160 q-126 -109 -282.5 -172t-306.5 -63q-155 0 -285 56.5t-215.5 153t-123.5 232.5q-24 86 -25 179q0 53 8 108z" />
<glyph unicode="D" horiz-adv-x="1587" d="M188 0l207 1434h588q212 0 368.5 -92t228.5 -256q50 -116 50 -251q0 -57 -9 -118q-30 -205 -149 -368.5t-303.5 -256t-398.5 -92.5h-582zM461 217h353q138 0 259.5 63.5t202 177.5t101.5 257q6 44 6 84q-1 162 -99 276q-124 142 -337 142h-342z" />
<glyph unicode="E" horiz-adv-x="1343" d="M188 0l207 1434h1024l-31 -217h-783l-55 -388h700l-31 -217h-701l-57 -395h807l-31 -217h-1049z" />
<glyph unicode="F" horiz-adv-x="1177" d="M188 0l207 1434h963l-34 -217h-719l-59 -414h651l-31 -215h-651l-85 -588h-242z" />
<glyph unicode="G" horiz-adv-x="1533" d="M173 717q22 151 100.5 285.5t194.5 230.5t266.5 151.5t310.5 55.5q152 0 290 -54t232 -147l-163 -178q-72 77 -175 120.5t-215 43.5q-220 0 -392 -147t-203 -361q-6 -39 -6 -76q0 -97 39 -183q52 -117 162.5 -184t254.5 -67q166 0 344 98l58 400h211l-76 -529 q-122 -84 -280 -135t-304 -51q-156 0 -288 56.5t-218 153t-126 231.5q-25 87 -25 180q0 52 8 106z" />
<glyph unicode="H" horiz-adv-x="1619" d="M188 0l207 1434h242l-90 -623h760l89 623h242l-206 -1434h-242l85 594h-759l-86 -594h-242z" />
<glyph unicode="I" horiz-adv-x="618" d="M188 0l207 1434h242l-207 -1434h-242z" />
<glyph unicode="J" horiz-adv-x="1021" d="M24 197l141 184q58 -75 133 -116.5t150 -41.5q97 0 159 59t78 169l142 983h244l-143 -992q-31 -215 -167 -333.5t-345 -118.5q-253 0 -392 207z" />
<glyph unicode="K" horiz-adv-x="1470" d="M188 0l207 1434h242l-107 -742l791 742h284l-643 -613l474 -821h-291l-380 633l-282 -268l-53 -365h-242z" />
<glyph unicode="L" horiz-adv-x="1093" d="M188 0l207 1434h242l-175 -1215h620l-31 -219h-863z" />
<glyph unicode="M" horiz-adv-x="1894" d="M188 0l207 1434h287l336 -953l608 953h285l-207 -1434h-223l152 1071l-585 -921h-158l-320 921l-154 -1071h-228z" />
<glyph unicode="N" horiz-adv-x="1622" d="M188 0l207 1434h238l619 -1031l149 1031h237l-206 -1434h-238l-616 1028l-148 -1028h-242z" />
<glyph unicode="O" horiz-adv-x="1658" d="M173 717q22 152 100 286.5t193 230t264 151t307 55.5t291 -55.5t220 -151.5q87 -97 127 -231q26 -87 26 -180q0 -52 -8 -105q-22 -151 -100.5 -286t-193.5 -231.5t-264 -153t-307 -56.5t-291 56.5t-220 153t-127 231.5q-25 87 -25 180q0 52 8 106zM419 717q-5 -38 -6 -75 q0 -96 39 -182q53 -118 161.5 -185.5t247.5 -67.5t266 67.5t212.5 185t105.5 257.5q6 39 6 76q1 97 -37 181q-52 116 -159.5 182.5t-246.5 66.5q-214 0 -386 -147t-203 -359z" />
<glyph unicode="P" horiz-adv-x="1378" d="M188 0l207 1434h571q270 0 400 -128q104 -102 104 -270q0 -44 -7 -92q-35 -243 -203 -377.5t-438 -134.5h-330l-62 -432h-242zM524 649h319q168 0 267.5 72.5t120.5 216.5q4 28 4 53q0 100 -63 156q-79 70 -247 70h-320z" />
<glyph unicode="Q" horiz-adv-x="1689" d="M173 717q22 152 100 286.5t193 230t264 151t307 55.5t291 -55.5t220 -151.5t127 -231q26 -86 26 -180q0 -51 -8 -105q-35 -243 -204.5 -431t-411.5 -259q105 -133 220 -133t282 118l71 -170q-94 -74 -203 -115.5t-208 -41.5q-134 0 -240.5 79.5t-172.5 225.5 q-211 1 -371 96.5t-235 261.5q-55 121 -55 260q0 53 8 109zM419 717q-5 -38 -5 -75q0 -97 38 -182q53 -118 161.5 -185.5t247.5 -67.5t266 67.5t212.5 185t105.5 257.5q6 39 6 76q0 97 -37 181q-52 116 -159.5 182.5t-246.5 66.5q-214 0 -386 -147t-203 -359z" />
<glyph unicode="R" horiz-adv-x="1480" d="M188 0l207 1434h582q275 0 408 -128q106 -102 106 -271q0 -43 -7 -91q-25 -171 -118.5 -290t-245.5 -175l252 -479h-274l-200 434q-21 -2 -66 -2h-340l-62 -432h-242zM524 649h340q168 0 268 72.5t121 216.5q4 28 4 53q0 100 -64 156q-80 70 -248 70h-340z" />
<glyph unicode="S" horiz-adv-x="1273" d="M85 219l134 209q94 -99 216 -154t240 -55q127 0 204 45.5t89 128.5q2 14 2 27q0 30 -12 55q-16 36 -50 59t-80.5 44t-100 35t-109.5 33.5t-109 39.5t-97.5 52.5t-75.5 72.5q-32 39 -46 99q-7 33 -7 70q0 30 5 64q26 183 185.5 291.5t394.5 108.5q136 0 261.5 -40 t218.5 -108l-131 -213q-101 67 -207 100.5t-194 33.5q-107 0 -176 -39.5t-79 -110.5q-2 -12 -2 -24q0 -35 16 -64q21 -38 62 -62.5t96 -45t116.5 -39.5t122.5 -41t114 -54.5t92 -74.5q40 -43 56 -108q10 -38 9 -81q0 -32 -5 -67q-27 -189 -193.5 -301.5t-406.5 -112.5 q-164 0 -309 61.5t-244 165.5z" />
<glyph unicode="T" horiz-adv-x="1185" d="M194 1217l31 217h1149l-31 -217h-455l-175 -1217h-242l175 1217h-452z" />
<glyph unicode="U" horiz-adv-x="1564" d="M245 594l121 840h242l-121 -840q-6 -41 -6 -78q1 -126 69 -206q88 -103 266 -103q176 0 292.5 102.5t142.5 284.5l121 840h242l-121 -840q-41 -281 -230.5 -442.5t-479.5 -161.5t-434 162q-113 126 -113 325q0 56 9 117z" />
<glyph unicode="V" horiz-adv-x="1413" d="M213 1434h260l274 -1166l615 1166h252l-787 -1434h-249z" />
<glyph unicode="W" horiz-adv-x="2121" d="M213 1434h260l180 -1166l514 1164l238 2l180 -1166l514 1166h250l-686 -1434h-248l-179 1118l-505 -1118h-250z" />
<glyph unicode="X" horiz-adv-x="1417" d="M31 0l628 735l-385 699h281l278 -498l424 498h283l-581 -689l415 -745h-289l-309 541l-463 -541h-282z" />
<glyph unicode="Y" horiz-adv-x="1304" d="M209 1434h243l309 -699l502 699h246l-664 -957l-69 -477h-239l67 469z" />
<glyph unicode="Z" horiz-adv-x="1363" d="M76 0l25 174l1025 1043h-848l31 217h1173l-25 -174l-1022 -1043h882l-31 -217h-1210z" />
<glyph unicode="[" horiz-adv-x="706" d="M152 -254l255 1774h465l-27 -189h-254l-201 -1397h254l-27 -188h-465z" />
<glyph unicode="\" horiz-adv-x="1116" d="M507 1671h201l374 -1911h-201z" />
<glyph unicode="]" horiz-adv-x="968" d="M279 -254l27 188h254l201 1397h-254l27 189h465l-255 -1774h-465z" />
<glyph unicode="^" horiz-adv-x="1101" d="M104 270l498 807h207l264 -807h-182l-206 662l-398 -662h-183z" />
<glyph unicode="_" horiz-adv-x="1159" d="M-60 -418l20 144h1160l-21 -144h-1159z" />
<glyph unicode="`" horiz-adv-x="716" d="M323 1448l257 102l173 -303h-209z" />
<glyph unicode="a" horiz-adv-x="1200" d="M131 328q22 151 143 238.5t316 88.5h330l5 33q3 21 3 41q0 75 -46 121q-58 58 -186 57q-160 0 -337 -110l-73 164q136 74 239.5 105.5t249.5 31.5q209 0 309 -101q81 -81 81 -215q0 -32 -5 -67l-101 -715h-232l20 133q-137 -143 -382 -143q-175 0 -265 95q-73 77 -73 189 q0 26 4 54zM354 338q-2 -13 -2 -26q0 -56 41 -92q50 -44 148 -44q126 0 222 59t118 148l14 100h-295q-117 0 -176 -34t-70 -111z" />
<glyph unicode="b" horiz-adv-x="1392" d="M184 0l219 1520h236l-89 -619q152 197 409 197q232 0 354 -154q94 -119 94 -294q0 -52 -8 -109q-35 -245 -199 -397t-396 -152q-261 0 -357 196l-27 -188h-236zM499 549q-5 -35 -5 -67q0 -113 61 -190q78 -99 224 -99t253 99.5t130 256.5q5 33 5 64q1 111 -61 189 q-78 100 -224.5 99.5t-253 -99.5t-129.5 -253z" />
<glyph unicode="c" horiz-adv-x="1155" d="M150 543q36 247 211 401t418 154q295 0 425 -178l-151 -152q-103 123 -285 123h-9q-142 0 -247 -97t-127 -251q-5 -34 -4 -66q0 -110 59 -185q77 -97 219 -97q209 0 340 131l112 -131q-184 -203 -492 -203q-243 0 -373 152q-103 120 -103 299q0 48 7 100z" />
<glyph unicode="d" horiz-adv-x="1396" d="M151 549q35 246 201 398.5t396 152.5q262 0 359 -199l89 619h235l-219 -1520h-235l27 186q-148 -196 -412 -196q-234 0 -356 154q-94 119 -93 296q0 52 8 109zM385 541q-4 -33 -4 -63q0 -114 62 -192q79 -100 227 -100q147 0 254.5 99.5t130.5 255.5q5 36 5 69 q0 112 -60 189q-78 100 -227 100q-147 0 -255.5 -100.5t-132.5 -257.5z" />
<glyph unicode="e" horiz-adv-x="1204" d="M150 543q36 247 211.5 400t419.5 155q279 0 381 -170q62 -103 62 -255q0 -99 -26 -218h-823q10 -126 89.5 -199.5t208.5 -73.5q184 0 326 127l106 -133q-93 -89 -215 -136.5t-262 -47.5q-251 0 -382 152q-103 120 -103 299q0 48 7 100zM395 627h623q2 21 2 40 q0 104 -60 167q-70 75 -204 75q-129 0 -225.5 -75.5t-135.5 -206.5z" />
<glyph unicode="f" horiz-adv-x="702" d="M201 872l26 177h143l16 106q13 92 55.5 165.5t102 118t129 68t141.5 23.5q143 0 235 -76l-116 -180q-62 51 -142 51q-64 0 -111 -37t-58 -110l-18 -129h284l-25 -177h-285l-125 -872h-234l126 872h-144z" />
<glyph unicode="g" horiz-adv-x="1310" d="M102 -260l125 170q142 -119 325 -119q155 0 260.5 84t125.5 225l20 138q-141 -185 -387 -185q-221 0 -335 146q-89 113 -89 278q0 49 8 103q33 230 187 373.5t371 144.5h8q242 0 334 -185l26 177h233l-142 -984q-34 -234 -207.5 -371.5t-430.5 -137.5q-241 0 -432 143z M375 573q-4 -31 -4 -60q0 -108 59 -181q75 -94 215 -94q138 0 239 93.5t122 241.5q5 33 5 63q0 106 -58 178q-74 93 -212 93q-139 0 -241 -93.5t-125 -240.5z" />
<glyph unicode="h" horiz-adv-x="1370" d="M184 0l219 1520h236l-93 -643q144 221 435 221q189 0 281 -112q70 -86 70 -221q0 -41 -6 -87l-97 -678h-236l89 612q4 28 4 54q0 85 -46 140q-60 71 -183 71q-143 -1 -241 -96.5t-119 -243.5l-77 -537h-236z" />
<glyph unicode="i" horiz-adv-x="581" d="M174 0l157 1090h234l-157 -1090h-234zM355 1401q9 62 54 102.5t104 40.5t93 -40q26 -32 26 -77q0 -12 -2 -26q-9 -61 -54 -101t-104 -40q-58 0 -92 40q-26 32 -27 76q0 12 2 25z" />
<glyph unicode="j" horiz-adv-x="587" d="M-222 -334l104 182q62 -49 132 -49q58 0 98.5 37t51.5 111l165 1143h234l-162 -1121q-13 -93 -54 -167t-98 -119t-122 -68t-132 -23q-127 0 -217 74zM347 1401q9 63 55.5 103t108.5 40q64 0 99 -40q28 -32 28 -78q0 -12 -2 -25q-9 -62 -55.5 -103t-110.5 -41 q-62 0 -97 41q-28 34 -28 79q0 12 2 24z" />
<glyph unicode="k" horiz-adv-x="1218" d="M184 0l219 1520h236l-132 -918l551 488h270l-464 -422l338 -668h-278l-248 500l-212 -195l-44 -305h-236z" />
<glyph unicode="l" horiz-adv-x="604" d="M184 0l219 1520h236l-219 -1520h-236z" />
<glyph unicode="m" horiz-adv-x="2136" d="M174 0l157 1090h234l-31 -211q139 219 427 219q145 0 233 -68.5t108 -193.5q138 262 452 262q186 0 276 -112q68 -85 68 -219q0 -42 -6 -89l-97 -678h-236l88 612q4 29 4 55q-1 85 -45 141q-58 72 -178 71q-138 -4 -232.5 -99.5t-115.5 -240.5l-78 -539h-235l88 612 q4 30 4 56q0 86 -44 140q-58 71 -178 71q-139 -4 -235 -99.5t-117 -240.5l-77 -539h-234z" />
<glyph unicode="n" horiz-adv-x="1357" d="M174 0l157 1090h236l-30 -209q143 217 432 217q189 0 281 -112q70 -86 70 -221q0 -41 -6 -87l-97 -678h-236l88 612q4 29 4 54q1 85 -45 140q-60 71 -183 71q-133 -1 -226.5 -83.5t-125.5 -213.5l-83 -580h-236z" />
<glyph unicode="o" horiz-adv-x="1280" d="M150 545q36 247 215.5 400t433.5 153q253 0 389 -153q107 -121 107 -300q0 -48 -8 -100q-35 -246 -215 -399.5t-432 -153.5q-253 0 -389 154q-108 122 -108 302q0 47 7 97zM385 543q-5 -35 -5 -66q0 -113 62 -191q78 -98 226 -98q147 0 254 98.5t129 256.5q5 34 5 66 q0 112 -61 188q-78 98 -225 98q-148 0 -255.5 -98t-129.5 -254z" />
<glyph unicode="p" horiz-adv-x="1392" d="M127 -397l214 1487h236l-27 -189q152 197 409 197q232 0 354 -154q94 -119 94 -294q0 -52 -8 -109q-35 -245 -199 -397t-396 -152q-261 0 -357 196l-84 -585h-236zM499 549q-5 -35 -5 -67q0 -113 61 -190q78 -99 224 -99t253 99.5t130 256.5q5 33 5 64q0 111 -61 189 q-79 99 -225 99t-252.5 -99t-129.5 -253z" />
<glyph unicode="q" horiz-adv-x="1396" d="M151 549q35 246 201 398.5t396 152.5q262 0 359 -199l27 189h235l-214 -1487h-235l84 583q-148 -196 -412 -196q-234 0 -356 154q-93 120 -93 296q0 52 8 109zM385 541q-4 -33 -4 -63q0 -114 62 -192q79 -100 227 -100q147 0 254.5 99.5t130.5 255.5q5 36 5 69 q0 112 -60 189q-79 100 -227 100q-147 0 -255.5 -100.5t-132.5 -257.5z" />
<glyph unicode="r" horiz-adv-x="806" d="M174 0l157 1090h236l-32 -218q71 110 176 168t234 58l-33 -226q-15 1 -30 1q-140 -1 -242 -77q-113 -84 -148 -227l-82 -569h-236z" />
<glyph unicode="s" horiz-adv-x="962" d="M64 143l108 168q60 -61 156.5 -98t188.5 -37q80 0 133 29t62 88q1 8 1 16q0 35 -22 61q-27 32 -75 50.5t-106.5 35.5t-116 40.5t-103 56.5t-68.5 92q-15 39 -15 87q0 25 4 52q15 106 83.5 179t161.5 105t202 32q104 0 202 -29.5t163 -81.5l-111 -174q-66 44 -146.5 70 t-152.5 26q-161 0 -176 -108q-1 -7 -1 -14q0 -31 23 -55q28 -29 76.5 -47t108 -35.5t117.5 -42.5t104 -59.5t69 -94.5q15 -39 15 -87q0 -25 -4 -53q-15 -107 -86 -182t-168 -108t-211 -33q-123 0 -235 39.5t-181 111.5z" />
<glyph unicode="t" horiz-adv-x="833" d="M189 872l26 177h153l43 299h234l-43 -299h321l-25 -177h-322l-75 -522q-3 -25 -3 -46q0 -45 16 -68q24 -33 83 -33q67 0 170 47l34 -180q-146 -80 -280 -80q-63 0 -114.5 18.5t-89 56t-53.5 99.5q-9 35 -8 76q0 32 5 67l82 565h-154z" />
<glyph unicode="u" horiz-adv-x="1337" d="M199 412l97 678h236l-88 -613q-4 -29 -5 -56q1 -83 45 -137q58 -70 175 -71q139 3 233 98.5t115 241.5l78 537h235l-157 -1090h-235l30 213q-138 -218 -421 -221q-187 0 -277 112q-68 85 -68 219q0 42 7 89z" />
<glyph unicode="v" horiz-adv-x="1075" d="M159 1090h246l179 -859l423 859h235l-574 -1090h-244z" />
<glyph unicode="w" horiz-adv-x="1828" d="M159 1090h242l159 -857l398 857h243l154 -857l401 857h240l-554 -1090h-244l-160 807l-393 -807h-242z" />
<glyph unicode="x" horiz-adv-x="1134" d="M29 0l465 559l-282 531h271l190 -373l301 373h258l-426 -531l294 -559h-271l-202 399l-336 -399h-262z" />
<glyph unicode="y" horiz-adv-x="1087" d="M-50 -315l127 182q66 -53 134 -53q111 0 183 120l49 82l-296 1074h243l207 -826l422 826h236l-674 -1240q-138 -258 -392 -258q-140 0 -239 93z" />
<glyph unicode="z" horiz-adv-x="1099" d="M92 0l23 160l729 737h-604l28 193l894 -3l-22 -157l-729 -737l640 -3l-27 -192z" />
<glyph unicode="{" horiz-adv-x="673" d="M151 535l28 194h63q46 0 71 25.5t33 83.5l61 424q20 141 102.5 200.5t254.5 59.5h88l-27 -189q-107 0 -156 -33.5t-60 -111.5l-48 -336q-14 -99 -54 -150t-121 -71q75 -19 100.5 -69.5t11.5 -149.5l-49 -336q-11 -78 28 -112t146 -34l-27 -188h-88q-172 0 -237 60 t-45 202l61 422q8 58 -9.5 83.5t-63.5 25.5h-63z" />
<glyph unicode="|" horiz-adv-x="550" d="M152 -238l273 1897h179l-274 -1897h-178z" />
<glyph unicode="}" horiz-adv-x="823" d="M227 -258l27 188q107 0 156 34t60 112l48 336q14 99 54 150t121 71q-75 19 -100 69.5t-11 149.5l48 336q11 78 -28 111.5t-146 33.5l27 189h89q172 0 237 -59.5t45 -200.5l-62 -424q-8 -58 9.5 -83.5t63.5 -25.5h63l-28 -194h-63q-46 0 -71 -25.5t-33 -83.5l-61 -422 q-20 -142 -102.5 -202t-254.5 -60h-88z" />
<glyph unicode="~" d="M210 522q41 287 240 287q56 0 112 -29.5t102.5 -58.5t80.5 -29q80 0 95 103h161q-41 -287 -240 -287q-47 0 -92.5 18.5t-74.5 40t-63.5 40t-61.5 18.5q-80 0 -95 -103h-164z" />
<glyph unicode="&#xa1;" horiz-adv-x="428" d="M82 -328l51 355l124 604h149l-50 -604l-51 -355h-223zM250 969q9 60 51 98.5t98 38.5t87 -38.5t22 -98.5q-8 -58 -50 -95.5t-98 -37.5t-87 37.5t-23 95.5z" />
<glyph unicode="&#xa2;" horiz-adv-x="1155" d="M150 543q32 222 179 371t359 178l44 309h178l-44 -307q229 -24 338 -174l-151 -152q-82 99 -217 119l-98 -686q155 18 261 125l112 -131q-155 -172 -403 -199l-41 -287h-178l41 289q-203 28 -307.5 176t-72.5 369zM385 543q-18 -125 30 -214t146 -120l96 668 q-107 -31 -180.5 -120t-91.5 -214z" />
<glyph unicode="&#xa3;" horiz-adv-x="1120" d="M76 0l28 197h170l60 413h-170l25 172h169l30 207q31 218 162 336.5t340 118.5q117 0 215.5 -47.5t163.5 -136.5l-123 -189q-109 156 -263 156q-107 0 -172 -61.5t-82 -182.5l-29 -201h361l-25 -172h-361l-59 -413h573l-28 -197h-985z" />
<glyph unicode="&#xa4;" horiz-adv-x="1456" d="M91 133l239 209q-83 143 -58 311q25 170 143 310l-175 204l153 142l181 -211q156 96 325 96t300 -94l241 209l113 -142l-235 -204q81 -140 56 -310q-25 -171 -149 -311l179 -209l-154 -141l-186 215q-152 -90 -320 -90q-166 0 -292 90l-248 -215zM461 653 q-20 -138 71.5 -237t240.5 -99q152 0 273.5 99t141.5 237q20 141 -73 241.5t-245 100.5q-149 0 -269 -100.5t-140 -241.5z" />
<glyph unicode="&#xa5;" horiz-adv-x="1286" d="M195 285l14 102h383l12 82l-36 88h-334l15 102h278l-318 775h243l309 -699l502 699h246l-537 -775h301l-15 -102h-356l-55 -78l-13 -92h399l-14 -102h-400l-41 -285h-241l41 285h-383z" />
<glyph unicode="&#xa6;" horiz-adv-x="550" d="M152 -238l102 709h178l-102 -709h-178zM323 950l102 709h179l-103 -709h-178z" />
<glyph unicode="&#xa7;" horiz-adv-x="1021" d="M40 -18l94 151q156 -139 355 -139q94 0 159.5 37t73.5 92q7 46 -22.5 80t-81 55.5t-114.5 41.5t-125 45.5t-111.5 59.5t-75.5 91t-15 133q14 96 90 164t197 96q-108 47 -146.5 100.5t-26.5 136.5q19 130 141 212.5t303 82.5q209 0 372 -108l-96 -152q-151 94 -298 94 q-91 0 -149.5 -33t-66.5 -87q-6 -41 16.5 -72.5t63.5 -50.5t94.5 -38.5t110 -36t108.5 -43.5t91.5 -59.5t58.5 -86t9 -121.5q-13 -88 -87 -162.5t-172 -102.5q89 -41 122.5 -93.5t21.5 -139.5q-19 -133 -147 -218t-316 -85q-125 0 -237.5 40.5t-193.5 115.5zM384 645 q-10 -71 58 -117.5t178 -46.5q96 0 152.5 36t65.5 95q10 70 -55 114t-176 44q-97 0 -156 -33.5t-67 -91.5z" />
<glyph unicode="&#xa8;" horiz-adv-x="794" d="M257 1411q8 57 48.5 94t94.5 37t83 -37t21 -94q-8 -56 -47.5 -92.5t-93.5 -36.5t-84 36.5t-22 92.5zM619 1411q8 57 49 94t95 37t83 -37t21 -94q-8 -56 -48 -92.5t-94 -36.5t-84 36.5t-22 92.5z" />
<glyph unicode="&#xa9;" horiz-adv-x="1525" d="M172 713q27 187 141.5 347.5t288.5 255.5t365 95q143 0 264 -55t199 -148.5t113.5 -221.5t15.5 -269q-20 -140 -93 -268.5t-179 -223t-243.5 -151t-281.5 -56.5q-143 0 -263.5 55.5t-198.5 149.5t-113 222t-15 268zM289 713q-22 -155 33.5 -286t176.5 -208.5t281 -77.5 q161 0 306 78.5t240 210.5t117 287q17 116 -12.5 221t-94.5 182t-165.5 122.5t-220.5 45.5t-234.5 -46t-202.5 -124t-147.5 -183.5t-76.5 -221.5zM509 715q22 149 142.5 249.5t276.5 100.5q73 0 140 -29t112 -80l-84 -86q-75 86 -182 86q-104 0 -186 -69.5t-96 -169.5 q-14 -102 47 -173t165 -71q109 0 207 82l60 -80q-62 -53 -138.5 -84t-150.5 -31q-154 0 -244.5 102t-68.5 253z" />
<glyph unicode="&#xaa;" horiz-adv-x="788" d="M230 1126q13 89 86.5 137t196.5 50h198l5 28q8 58 -27 89.5t-112 31.5q-98 0 -228 -61l-24 115q168 75 310 75q133 0 198 -61t49 -170l-61 -422h-162l15 102q-93 -108 -251 -108q-102 0 -154 53.5t-39 140.5zM388 1141q-7 -45 22 -72t84 -27q125 0 193 101l12 86h-166 q-63 0 -101 -22.5t-44 -65.5z" />
<glyph unicode="&#xab;" horiz-adv-x="933" d="M124 532l289 357h196l-270 -357l168 -356h-197zM492 532l289 357h197l-270 -357l167 -356h-196z" />
<glyph unicode="&#xac;" horiz-adv-x="1150" d="M168 666l23 161h924l-77 -530h-172l53 369h-751z" />
<glyph unicode="&#xad;" horiz-adv-x="753" d="M203 543l23 162h504l-23 -162h-504z" />
<glyph unicode="&#xae;" horiz-adv-x="1525" d="M172 713q27 187 141.5 347.5t288.5 255.5t365 95q143 0 264 -55t199 -148.5t113.5 -221.5t15.5 -269q-20 -140 -93 -268.5t-179 -223t-243.5 -151t-281.5 -56.5q-143 0 -263.5 55.5t-198.5 149.5t-113 222t-15 268zM289 713q-22 -155 33.5 -286t176.5 -208.5t281 -77.5 q161 0 306 78.5t240 210.5t117 287q17 116 -12.5 221t-94.5 182t-165.5 122.5t-220.5 45.5t-234.5 -46t-202.5 -124t-147.5 -183.5t-76.5 -221.5zM556 389l100 692h278q135 0 199 -61.5t47 -175.5q-24 -167 -177 -223l126 -232h-135l-99 209h-31h-161l-30 -209h-117z M717 696h162q80 0 130.5 38.5t60.5 107.5q10 68 -30 104.5t-120 36.5h-162z" />
<glyph unicode="&#xaf;" horiz-adv-x="716" d="M287 1313l25 170h522l-24 -170h-523z" />
<glyph unicode="&#xb0;" horiz-adv-x="708" d="M371 1423q14 97 94 166.5t178 69.5t157.5 -69.5t45.5 -166.5t-93.5 -166t-177.5 -69q-97 0 -157.5 69.5t-46.5 165.5zM471 1423q-8 -53 27 -91t92 -38t102.5 38t53.5 91t-27 92t-92 39t-102.5 -39t-53.5 -92z" />
<glyph unicode="&#xb1;" d="M78 41l23 164h877l-24 -164h-876zM176 721l23 160h362l51 350h153l-50 -350h360l-23 -160h-360l-51 -350h-153l50 350h-362z" />
<glyph unicode="&#xb2;" horiz-adv-x="784" d="M160 588l17 114l369 330q52 44 86.5 89.5t38.5 78.5q7 46 -25 71t-95 25q-118 0 -255 -106l-49 127q180 123 352 123q127 0 197 -58.5t56 -156.5q-18 -123 -204 -279l-253 -223h422l-20 -135h-637z" />
<glyph unicode="&#xb3;" horiz-adv-x="727" d="M120 674l91 135q84 -98 209 -98q79 0 130 37t60 100q9 62 -31 94.5t-123 32.5h-127l13 94l263 234h-354l18 127h551l-14 -101l-279 -246l44 -4q107 -11 164 -71t43 -158q-17 -120 -117 -195t-248 -75q-83 0 -162 26t-131 68z" />
<glyph unicode="&#xb4;" horiz-adv-x="716" d="M306 1245l261 303l227 -102l-279 -201h-209z" />
<glyph unicode="&#xb5;" horiz-adv-x="1382" d="M127 -397l214 1487h236l-88 -613q-18 -123 39.5 -193.5t175.5 -70.5q139 3 233 98.5t115 241.5l78 537h235l-157 -1090h-235l30 213q-138 -218 -421 -221q-84 0 -160 26l-59 -415h-236z" />
<glyph unicode="&#xb6;" horiz-adv-x="1259" d="M154 1046.5q2 36.5 5 69.5q12 80 48 150t97.5 128t157.5 92t216 34h612l-251 -1743h-180l230 1595h-269l-230 -1595h-178l137 952h-63q-63 0 -115 13.5t-87 36.5t-62 54.5t-40 66.5t-21.5 72.5t-6.5 74z" />
<glyph unicode="&#xb7;" horiz-adv-x="434" d="M179 588q8 57 48 93t93 36t83 -36.5t22 -92.5q-8 -55 -48.5 -92t-93.5 -37t-82.5 37t-21.5 92z" />
<glyph unicode="&#xb8;" horiz-adv-x="716" d="M102 -401l61 110q47 -41 113 -41q42 0 71.5 25.5t34.5 58.5q5 32 -17 55t-70 23q-35 0 -73 -10l115 203h139l-77 -125q65 -12 97.5 -54t22.5 -108q-12 -87 -82 -141t-163 -54q-102 0 -172 58z" />
<glyph unicode="&#xb9;" horiz-adv-x="536" d="M219 1292l20 142h342l-122 -846h-172l102 704h-170z" />
<glyph unicode="&#xba;" horiz-adv-x="833" d="M243 1262q21 147 132 237t270 90t244.5 -90t64.5 -237t-133 -237.5t-271 -90.5q-158 0 -243 90t-64 238zM409 1260q-13 -87 31.5 -141t128.5 -54q83 0 142.5 53.5t72.5 141.5q13 87 -31 140.5t-128 53.5t-143.5 -53.5t-72.5 -140.5z" />
<glyph unicode="&#xbb;" horiz-adv-x="958" d="M181 178l271 357l-168 356h197l186 -356l-289 -357h-197zM550 178l270 357l-167 356h196l186 -356l-288 -357h-197z" />
<glyph unicode="&#xbc;" horiz-adv-x="1673" d="M102 0l1262 1434h225l-1259 -1434h-228zM219 1292l20 142h342l-122 -846h-172l102 704h-170zM952 199l18 120l368 527h164l-359 -520h245l30 209h162l-30 -209h125l-18 -127h-125l-29 -199h-162l29 199h-418z" />
<glyph unicode="&#xbd;" horiz-adv-x="1718" d="M102 0l1262 1434h225l-1259 -1434h-228zM219 1292l20 142h342l-122 -846h-172l102 704h-170zM1010 0l16 117l369 327q52 45 86.5 91t38.5 79q7 45 -24.5 71t-94.5 26q-55 0 -123 -28.5t-132 -78.5l-50 125q177 123 352 123q127 0 197.5 -59t56.5 -156q-18 -123 -204 -279 l-254 -221h422l-19 -137h-637z" />
<glyph unicode="&#xbe;" horiz-adv-x="1798" d="M120 674l91 135q84 -98 209 -98q79 0 130 37t60 100q9 62 -31 94.5t-123 32.5h-127l13 94l263 234h-354l18 127h551l-14 -101l-279 -246l44 -4q107 -11 164 -71t43 -158q-17 -120 -117 -195t-248 -75q-83 0 -162 26t-131 68zM229 0l1262 1434h225l-1259 -1434h-228z M1079 199l18 120l368 527h164l-359 -520h245l30 209h162l-30 -209h125l-18 -127h-125l-29 -199h-162l29 199h-418z" />
<glyph unicode="&#xbf;" horiz-adv-x="907" d="M64 6q10 66 35.5 121t60 94.5t74 75t78.5 69t72.5 69t58.5 83t33 103.5h181q-10 -67 -33.5 -122.5t-54.5 -94t-66 -72t-69.5 -63.5t-64.5 -61t-51.5 -73t-28.5 -92q-12 -88 37.5 -133t147.5 -45q101 0 165.5 53t83.5 156l184 -2q-34 -192 -162 -300t-320 -108 q-188 0 -286.5 89t-74.5 253zM490 969q9 60 51 98.5t98 38.5t87 -38.5t22 -98.5q-8 -58 -50 -95.5t-98 -37.5t-87 37.5t-23 95.5z" />
<glyph unicode="&#xc0;" horiz-adv-x="1511" d="M2 0l839 1434h248l420 -1434h-258l-90 324h-723l-184 -324h-252zM559 539h541l-179 637zM682 1792l257 102l173 -303h-209z" />
<glyph unicode="&#xc1;" horiz-adv-x="1511" d="M2 0l839 1434h248l420 -1434h-258l-90 324h-723l-184 -324h-252zM559 539h541l-179 637zM848 1589l260 303l227 -102l-279 -201h-208z" />
<glyph unicode="&#xc2;" horiz-adv-x="1511" d="M2 0l839 1434h248l420 -1434h-258l-90 324h-723l-184 -324h-252zM559 539h541l-179 637zM666 1595l253 289h217l169 -289h-192l-101 181l-153 -181h-193z" />
<glyph unicode="&#xc3;" horiz-adv-x="1511" d="M2 0l839 1434h248l420 -1434h-258l-90 324h-723l-184 -324h-252zM559 539h541l-179 637zM661 1628q39 268 227 268q38 0 73 -17.5t56.5 -38.5t48 -38.5t49.5 -17.5q78 0 92 100h150q-39 -268 -225 -268q-34 0 -63.5 11.5t-50.5 28t-39 33.5t-37.5 28.5t-39.5 11.5 q-76 0 -90 -101h-151z" />
<glyph unicode="&#xc4;" horiz-adv-x="1511" d="M2 0l839 1434h248l420 -1434h-258l-90 324h-723l-184 -324h-252zM559 539h541l-179 637zM703 1755q8 57 49 94t95 37t83 -37t21 -94q-8 -56 -47.5 -92.5t-93.5 -36.5t-84.5 37t-22.5 92zM1066 1755q8 57 49 94t95 37t83 -37t21 -94q-8 -56 -48 -92.5t-94 -36.5t-84 36.5 t-22 92.5z" />
<glyph unicode="&#xc5;" horiz-adv-x="1511" d="M2 0l812 1384q-44 34 -64.5 87.5t-11.5 113.5q15 103 99 176.5t187 73.5q104 0 167.5 -73.5t48.5 -176.5q-9 -60 -46 -114.5t-90 -88.5l405 -1382h-258l-90 324h-723l-184 -324h-252zM559 539h541l-179 637zM847 1585q-8 -55 27.5 -94t94.5 -39t107 39t56 94t-28.5 95 t-95.5 40q-58 0 -105.5 -39.5t-55.5 -95.5z" />
<glyph unicode="&#xc6;" horiz-adv-x="2154" d="M2 0l1038 1434h1188l-31 -217h-783l-56 -390h703l-31 -215h-703l-57 -395h807l-31 -217h-1047l51 354h-544l-252 -354h-252zM639 543h439l99 690h-49z" />
<glyph unicode="&#xc7;" horiz-adv-x="1427" d="M173 719q29 201 152.5 366.5t310 260t395.5 94.5q152 0 287.5 -59t225.5 -162l-167 -177q-66 85 -165.5 134t-207.5 49q-215 0 -384.5 -146t-200.5 -358q-20 -139 31 -255.5t159 -183.5t249 -67q106 0 218 45.5t206 124.5l121 -160q-111 -96 -247 -157t-272 -74l-59 -96 q65 -12 97.5 -54t22.5 -108q-12 -87 -82 -141t-163 -54q-102 0 -172 58l61 110q47 -41 113 -41q42 0 71.5 25.5t34.5 58.5q5 32 -17 55t-70 23q-35 0 -73 -10l98 172q-189 16 -329.5 115t-206 260t-37.5 352z" />
<glyph unicode="&#xc8;" horiz-adv-x="1343" d="M188 0l207 1434h1024l-31 -217h-783l-55 -388h700l-31 -217h-701l-57 -395h807l-31 -217h-1049zM631 1792l256 102l174 -303h-209z" />
<glyph unicode="&#xc9;" horiz-adv-x="1343" d="M188 0l207 1434h1024l-31 -217h-783l-55 -388h700l-31 -217h-701l-57 -395h807l-31 -217h-1049zM796 1589l261 303l227 -102l-279 -201h-209z" />
<glyph unicode="&#xca;" horiz-adv-x="1343" d="M188 0l207 1434h1024l-31 -217h-783l-55 -388h700l-31 -217h-701l-57 -395h807l-31 -217h-1049zM615 1595l252 289h218l169 -289h-193l-101 181l-153 -181h-192z" />
<glyph unicode="&#xcb;" horiz-adv-x="1343" d="M188 0l207 1434h1024l-31 -217h-783l-55 -388h700l-31 -217h-701l-57 -395h807l-31 -217h-1049zM652 1755q8 57 49 94t95 37t83 -37t21 -94q-8 -56 -47.5 -92.5t-93.5 -36.5t-84.5 37t-22.5 92zM1015 1755q8 57 49 94t95 37t83 -37t21 -94q-8 -56 -48 -92.5t-94 -36.5 t-84 36.5t-22 92.5z" />
<glyph unicode="&#xcc;" horiz-adv-x="618" d="M188 0l207 1434h242l-207 -1434h-242zM234 1792l256 102l173 -303h-208z" />
<glyph unicode="&#xcd;" horiz-adv-x="618" d="M188 0l207 1434h242l-207 -1434h-242zM401 1589l261 303l227 -102l-279 -201h-209z" />
<glyph unicode="&#xce;" horiz-adv-x="618" d="M188 0l207 1434h242l-207 -1434h-242zM220 1595l252 289h217l170 -289h-193l-101 181l-153 -181h-192z" />
<glyph unicode="&#xcf;" horiz-adv-x="618" d="M188 0l207 1434h242l-207 -1434h-242zM257 1755q8 57 49 94t95 37t83 -37t21 -94q-8 -56 -48 -92.5t-94 -36.5t-84 36.5t-22 92.5zM620 1755q8 57 48.5 94t94.5 37t83 -37t21 -94q-8 -56 -47.5 -92.5t-93.5 -36.5t-84 36.5t-22 92.5z" />
<glyph unicode="&#xd0;" horiz-adv-x="1628" d="M94 649l20 142h229l93 643h588q211 0 367.5 -92t228.5 -256t42 -369t-149 -368.5t-304 -256t-400 -92.5h-580l94 649h-229zM500 217h355q210 0 370 140.5t191 357.5q31 218 -91.5 360t-336.5 142h-344l-61 -426h407l-20 -142h-407z" />
<glyph unicode="&#xd1;" horiz-adv-x="1622" d="M188 0l207 1434h238l619 -1031l149 1031h237l-206 -1434h-238l-616 1028l-148 -1028h-242zM716 1628q39 268 227 268q38 0 73 -17.5t56.5 -38.5t48 -38.5t49.5 -17.5q79 0 93 100h149q-39 -268 -225 -268q-34 0 -63.5 11.5t-50 28t-38.5 33.5t-37.5 28.5t-39.5 11.5 q-77 0 -91 -101h-151z" />
<glyph unicode="&#xd2;" horiz-adv-x="1658" d="M173 717q22 152 100 286.5t193 230t264 151t307 55.5t291 -55.5t220 -151.5t127 -230.5t18 -285.5t-100.5 -286t-193.5 -231.5t-264 -153t-307 -56.5t-291 56.5t-220 153t-126.5 231.5t-17.5 286zM419 717q-20 -140 33 -257.5t161.5 -185t247.5 -67.5t266 67.5t212.5 185 t105.5 257.5t-31.5 256.5t-159 183t-246.5 66.5q-214 0 -386 -147t-203 -359zM746 1792l256 102l173 -303h-208z" />
<glyph unicode="&#xd3;" horiz-adv-x="1658" d="M173 717q22 152 100 286.5t193 230t264 151t307 55.5t291 -55.5t220 -151.5t127 -230.5t18 -285.5t-100.5 -286t-193.5 -231.5t-264 -153t-307 -56.5t-291 56.5t-220 153t-126.5 231.5t-17.5 286zM419 717q-20 -140 33 -257.5t161.5 -185t247.5 -67.5t266 67.5t212.5 185 t105.5 257.5t-31.5 256.5t-159 183t-246.5 66.5q-214 0 -386 -147t-203 -359zM911 1589l261 303l227 -102l-279 -201h-209z" />
<glyph unicode="&#xd4;" horiz-adv-x="1658" d="M173 717q22 152 100 286.5t193 230t264 151t307 55.5t291 -55.5t220 -151.5t127 -230.5t18 -285.5t-100.5 -286t-193.5 -231.5t-264 -153t-307 -56.5t-291 56.5t-220 153t-126.5 231.5t-17.5 286zM419 717q-20 -140 33 -257.5t161.5 -185t247.5 -67.5t266 67.5t212.5 185 t105.5 257.5t-31.5 256.5t-159 183t-246.5 66.5q-214 0 -386 -147t-203 -359zM730 1595l252 289h217l170 -289h-193l-101 181l-153 -181h-192z" />
<glyph unicode="&#xd5;" horiz-adv-x="1658" d="M173 717q22 152 100 286.5t193 230t264 151t307 55.5t291 -55.5t220 -151.5t127 -230.5t18 -285.5t-100.5 -286t-193.5 -231.5t-264 -153t-307 -56.5t-291 56.5t-220 153t-126.5 231.5t-17.5 286zM419 717q-20 -140 33 -257.5t161.5 -185t247.5 -67.5t266 67.5t212.5 185 t105.5 257.5t-31.5 256.5t-159 183t-246.5 66.5q-214 0 -386 -147t-203 -359zM724 1628q39 268 227 268q38 0 73 -17.5t57 -38.5t48.5 -38.5t49.5 -17.5q78 0 92 100h149q-39 -268 -225 -268q-34 0 -63.5 11.5t-50 28t-38.5 33.5t-37.5 28.5t-39.5 11.5q-76 0 -90 -101h-152 z" />
<glyph unicode="&#xd6;" horiz-adv-x="1658" d="M173 717q22 152 100 286.5t193 230t264 151t307 55.5t291 -55.5t220 -151.5t127 -230.5t18 -285.5t-100.5 -286t-193.5 -231.5t-264 -153t-307 -56.5t-291 56.5t-220 153t-126.5 231.5t-17.5 286zM419 717q-20 -140 33 -257.5t161.5 -185t247.5 -67.5t266 67.5t212.5 185 t105.5 257.5t-31.5 256.5t-159 183t-246.5 66.5q-214 0 -386 -147t-203 -359zM767 1755q8 57 49 94t95 37t83 -37t21 -94q-8 -56 -48 -92.5t-94 -36.5t-84 36.5t-22 92.5zM1129 1755q8 57 49 94t95 37t83 -37t21 -94q-8 -56 -47.5 -92.5t-93.5 -36.5t-84.5 37t-22.5 92z" />
<glyph unicode="&#xd7;" d="M207 412l288 254l-215 252l125 114l219 -256l291 256l92 -114l-288 -252l215 -254l-125 -115l-217 256l-293 -256z" />
<glyph unicode="&#xd8;" horiz-adv-x="1658" d="M173 717q22 152 100 286.5t193 230t264 151t307 55.5q64 0 139 -13l112 234h143l-128 -266q208 -76 316 -259.5t74 -418.5q-22 -151 -100.5 -286t-193.5 -231.5t-264 -153t-307 -56.5q-100 0 -193 22l-128 -262h-142l149 305q-186 88 -279.5 265t-61.5 397zM419 717 q-21 -142 33.5 -259.5t164.5 -185.5l458 947q-44 4 -67 4q-214 0 -386 -147t-203 -359zM735 223q62 -16 126 -16q139 0 266 67.5t212.5 185t105.5 257.5q23 157 -45.5 283t-200.5 184z" />
<glyph unicode="&#xd9;" horiz-adv-x="1564" d="M245 594l121 840h242l-121 -840q-26 -181 62.5 -284t266.5 -103q176 0 292.5 102.5t142.5 284.5l121 840h242l-121 -840q-41 -281 -230.5 -442.5t-479.5 -161.5t-434 161.5t-104 442.5zM709 1792l256 102l174 -303h-209z" />
<glyph unicode="&#xda;" horiz-adv-x="1564" d="M245 594l121 840h242l-121 -840q-26 -181 62.5 -284t266.5 -103q176 0 292.5 102.5t142.5 284.5l121 840h242l-121 -840q-41 -281 -230.5 -442.5t-479.5 -161.5t-434 161.5t-104 442.5zM874 1589l261 303l227 -102l-279 -201h-209z" />
<glyph unicode="&#xdb;" horiz-adv-x="1564" d="M245 594l121 840h242l-121 -840q-26 -181 62.5 -284t266.5 -103q176 0 292.5 102.5t142.5 284.5l121 840h242l-121 -840q-41 -281 -230.5 -442.5t-479.5 -161.5t-434 161.5t-104 442.5zM693 1595l252 289h217l170 -289h-193l-101 181l-153 -181h-192z" />
<glyph unicode="&#xdc;" horiz-adv-x="1564" d="M245 594l121 840h242l-121 -840q-26 -181 62.5 -284t266.5 -103q176 0 292.5 102.5t142.5 284.5l121 840h242l-121 -840q-41 -281 -230.5 -442.5t-479.5 -161.5t-434 161.5t-104 442.5zM730 1755q8 57 49 94t95 37t83 -37t21 -94q-8 -56 -48 -92.5t-94 -36.5t-84 36.5 t-22 92.5zM1093 1755q8 57 48.5 94t94.5 37t83 -37t21 -94q-8 -56 -47.5 -92.5t-93.5 -36.5t-84 36.5t-22 92.5z" />
<glyph unicode="&#xdd;" horiz-adv-x="1304" d="M209 1434h243l309 -699l502 699h246l-664 -957l-69 -477h-239l67 469zM743 1589l261 303l227 -102l-279 -201h-209z" />
<glyph unicode="&#xde;" horiz-adv-x="1390" d="M188 0l207 1434h242l-30 -203h302q291 0 430.5 -125t106.5 -354q-35 -240 -211.5 -371t-467.5 -131h-301l-36 -250h-242zM495 451h291q371 0 413 294q20 140 -63.5 212.5t-266.5 72.5h-290z" />
<glyph unicode="&#xdf;" horiz-adv-x="1339" d="M160 0l144 999q35 243 195 387t403 144q213 0 330 -108t91 -287q-17 -120 -95.5 -217t-193.5 -138q141 -29 215 -118.5t54 -231.5q-27 -190 -192.5 -310t-408.5 -120h-104l26 182h123q131 0 221 67.5t105 174.5q16 114 -67 178t-240 64h-27l26 180q132 0 220.5 68.5 t104.5 183.5q16 111 -44 176t-175 65q-132 0 -220.5 -87t-110.5 -236l-147 -1016h-233z" />
<glyph unicode="&#xe0;" horiz-adv-x="1200" d="M131 328q22 151 143 238.5t316 88.5h330l5 33q15 104 -43.5 161.5t-185.5 57.5q-160 0 -337 -110l-73 164q136 74 239.5 105.5t249.5 31.5q209 0 309 -101t76 -282l-101 -715h-232l20 133q-137 -143 -382 -143q-174 0 -264.5 95t-69.5 243zM354 338q-11 -74 39 -118 t148 -44q126 0 222 59t118 148l14 100h-295q-117 0 -176 -34t-70 -111zM471 1448l256 102l174 -303h-209z" />
<glyph unicode="&#xe1;" horiz-adv-x="1200" d="M131 328q22 151 143 238.5t316 88.5h330l5 33q15 104 -43.5 161.5t-185.5 57.5q-160 0 -337 -110l-73 164q136 74 239.5 105.5t249.5 31.5q209 0 309 -101t76 -282l-101 -715h-232l20 133q-137 -143 -382 -143q-174 0 -264.5 95t-69.5 243zM354 338q-11 -74 39 -118 t148 -44q126 0 222 59t118 148l14 100h-295q-117 0 -176 -34t-70 -111zM636 1245l261 303l227 -102l-279 -201h-209z" />
<glyph unicode="&#xe2;" horiz-adv-x="1200" d="M131 328q22 151 143 238.5t316 88.5h330l5 33q15 104 -43.5 161.5t-185.5 57.5q-160 0 -337 -110l-73 164q136 74 239.5 105.5t249.5 31.5q209 0 309 -101t76 -282l-101 -715h-232l20 133q-137 -143 -382 -143q-174 0 -264.5 95t-69.5 243zM354 338q-11 -74 39 -118 t148 -44q126 0 222 59t118 148l14 100h-295q-117 0 -176 -34t-70 -111zM455 1251l252 289h217l170 -289h-193l-101 181l-153 -181h-192z" />
<glyph unicode="&#xe3;" horiz-adv-x="1200" d="M131 328q22 151 143 238.5t316 88.5h330l5 33q15 104 -43.5 161.5t-185.5 57.5q-160 0 -337 -110l-73 164q136 74 239.5 105.5t249.5 31.5q209 0 309 -101t76 -282l-101 -715h-232l20 133q-137 -143 -382 -143q-174 0 -264.5 95t-69.5 243zM354 338q-11 -74 39 -118 t148 -44q126 0 222 59t118 148l14 100h-295q-117 0 -176 -34t-70 -111zM449 1284q39 268 227 268q38 0 73 -17.5t57 -38.5t48.5 -38.5t49.5 -17.5q78 0 92 100h150q-39 -268 -225 -268q-42 0 -78 17.5t-56.5 38.5t-46.5 38.5t-49 17.5q-76 0 -90 -100h-152z" />
<glyph unicode="&#xe4;" horiz-adv-x="1200" d="M131 328q22 151 143 238.5t316 88.5h330l5 33q15 104 -43.5 161.5t-185.5 57.5q-160 0 -337 -110l-73 164q136 74 239.5 105.5t249.5 31.5q209 0 309 -101t76 -282l-101 -715h-232l20 133q-137 -143 -382 -143q-174 0 -264.5 95t-69.5 243zM354 338q-11 -74 39 -118 t148 -44q126 0 222 59t118 148l14 100h-295q-117 0 -176 -34t-70 -111zM492 1411q8 57 49 94t95 37t83 -37t21 -94q-8 -56 -48 -92.5t-94 -36.5t-84 36.5t-22 92.5zM855 1411q8 57 48.5 94t94.5 37t83 -37t21 -94q-8 -56 -47.5 -92.5t-93.5 -36.5t-84 36.5t-22 92.5z" />
<glyph unicode="&#xe5;" horiz-adv-x="1200" d="M131 328q22 151 143 238.5t316 88.5h330l5 33q15 104 -43.5 161.5t-185.5 57.5q-160 0 -337 -110l-73 164q136 74 239.5 105.5t249.5 31.5q209 0 309 -101t76 -282l-101 -715h-232l20 133q-137 -143 -382 -143q-174 0 -264.5 95t-69.5 243zM354 338q-11 -74 39 -118 t148 -44q126 0 222 59t118 148l14 100h-295q-117 0 -176 -34t-70 -111zM554 1403q14 97 95.5 167t180.5 70q100 0 161 -70t47 -167q-14 -98 -95 -168t-181 -70t-161 70t-47 168zM657 1403q-8 -54 27.5 -92.5t92.5 -38.5t104 38.5t54 92.5q8 54 -27.5 92.5t-92.5 38.5 t-104 -38.5t-54 -92.5z" />
<glyph unicode="&#xe6;" horiz-adv-x="1994" d="M130 317q21 147 141.5 227.5t316.5 82.5h332l9 61q15 104 -44 161.5t-187 57.5q-176 0 -376 -110l-35 170q259 131 488 131q269 0 359 -164q169 164 411 164q254 0 377.5 -166.5t75.5 -437.5h-860q-2 -144 79 -228t220 -84q184 0 326 127l108 -133q-197 -184 -480 -184 q-160 0 -270 69t-155 193q-170 -264 -503 -264q-173 0 -263.5 90.5t-69.5 236.5zM354 338q-12 -82 39 -132t148 -50q238 0 362 227l40 -39q-5 21 -7 55l-45 11l12 90h-288q-114 0 -182 -42t-79 -120zM1156 621h625q15 135 -56 220t-203 85q-129 0 -228.5 -84.5 t-137.5 -220.5z" />
<glyph unicode="&#xe7;" horiz-adv-x="1155" d="M150 543q36 247 211 401t418 154q295 0 425 -178l-151 -152q-105 126 -294 123q-142 0 -247 -97t-127 -251t55 -251t219 -97q209 0 340 131l112 -131q-161 -178 -417 -199l-62 -98q65 -12 97.5 -54t22.5 -108q-12 -87 -82 -141t-163 -54q-102 0 -172 58l61 110 q47 -41 113 -41q42 0 72 25.5t35 58.5q5 32 -17.5 55t-70.5 23q-35 0 -73 -10l99 176q-215 20 -326 169.5t-78 377.5z" />
<glyph unicode="&#xe8;" horiz-adv-x="1204" d="M150 543q36 247 211.5 400t419.5 155q279 0 381 -169.5t36 -473.5h-823q10 -126 89.5 -199.5t208.5 -73.5q184 0 326 127l106 -133q-93 -89 -215 -136.5t-262 -47.5q-251 0 -382 152t-96 399zM395 627h623q13 132 -57.5 207t-204.5 75q-129 0 -225.5 -75.5t-135.5 -206.5 zM487 1448l257 102l173 -303h-209z" />
<glyph unicode="&#xe9;" horiz-adv-x="1204" d="M150 543q36 247 211.5 400t419.5 155q279 0 381 -169.5t36 -473.5h-823q10 -126 89.5 -199.5t208.5 -73.5q184 0 326 127l106 -133q-93 -89 -215 -136.5t-262 -47.5q-251 0 -382 152t-96 399zM395 627h623q13 132 -57.5 207t-204.5 75q-129 0 -225.5 -75.5t-135.5 -206.5 zM653 1245l260 303l227 -102l-279 -201h-208z" />
<glyph unicode="&#xea;" horiz-adv-x="1204" d="M150 543q36 247 211.5 400t419.5 155q279 0 381 -169.5t36 -473.5h-823q10 -126 89.5 -199.5t208.5 -73.5q184 0 326 127l106 -133q-93 -89 -215 -136.5t-262 -47.5q-251 0 -382 152t-96 399zM395 627h623q13 132 -57.5 207t-204.5 75q-129 0 -225.5 -75.5t-135.5 -206.5 zM473 1251l253 289h217l169 -289h-192l-101 181l-153 -181h-193z" />
<glyph unicode="&#xeb;" horiz-adv-x="1204" d="M150 543q36 247 211.5 400t419.5 155q279 0 381 -169.5t36 -473.5h-823q10 -126 89.5 -199.5t208.5 -73.5q184 0 326 127l106 -133q-93 -89 -215 -136.5t-262 -47.5q-251 0 -382 152t-96 399zM395 627h623q13 132 -57.5 207t-204.5 75q-129 0 -225.5 -75.5t-135.5 -206.5 zM511 1411q8 57 48.5 94t94.5 37t83 -37t21 -94q-8 -56 -47.5 -92.5t-93.5 -36.5t-84 36.5t-22 92.5zM873 1411q8 57 49 94t95 37t83 -37t21 -94q-8 -56 -48 -92.5t-94 -36.5t-84 36.5t-22 92.5z" />
<glyph unicode="&#xec;" horiz-adv-x="581" d="M168 1448l256 102l174 -303h-209zM174 0l157 1090h234l-157 -1090h-234z" />
<glyph unicode="&#xed;" horiz-adv-x="581" d="M174 0l157 1090h234l-157 -1090h-234zM333 1245l261 303l227 -102l-279 -201h-209z" />
<glyph unicode="&#xee;" horiz-adv-x="581" d="M152 1251l252 289h217l170 -289h-193l-101 181l-153 -181h-192zM174 0l157 1090h234l-157 -1090h-234z" />
<glyph unicode="&#xef;" horiz-adv-x="581" d="M174 0l157 1090h234l-157 -1090h-234zM189 1411q8 57 49 94t95 37t83 -37t21 -94q-8 -56 -48 -92.5t-94 -36.5t-84 36.5t-22 92.5zM551 1411q8 57 49 94t95 37t83 -37t21 -94q-8 -56 -47.5 -92.5t-93.5 -36.5t-84.5 37t-22.5 92z" />
<glyph unicode="&#xf0;" horiz-adv-x="1208" d="M140 459q29 204 173 326t356 122q117 0 210 -45.5t131 -120.5q-37 221 -224 424l-326 -102l-21 123l247 78q-116 99 -229 157l171 109q160 -78 285 -195l286 90l19 -122l-210 -66q126 -151 181 -330t28 -364q-36 -252 -211 -402.5t-430 -150.5q-229 0 -348 127.5 t-88 341.5zM367 473q-18 -125 51 -199.5t202 -74.5q135 0 227 72t109 192q18 124 -52.5 198t-205.5 74q-134 0 -224 -71t-107 -191z" />
<glyph unicode="&#xf1;" horiz-adv-x="1357" d="M174 0l157 1090h236l-30 -209q143 217 432 217q190 0 281.5 -112t63.5 -308l-97 -678h-236l88 612q18 123 -41.5 194t-182.5 71q-133 -1 -226.5 -83.5t-125.5 -213.5l-83 -580h-236zM564 1284q39 268 227 268q38 0 73 -17.5t56.5 -38.5t48 -38.5t49.5 -17.5q79 0 93 100 h149q-39 -268 -225 -268q-42 0 -77.5 17.5t-56 38.5t-46.5 38.5t-49 17.5q-77 0 -91 -100h-151z" />
<glyph unicode="&#xf2;" horiz-adv-x="1280" d="M150 545q36 247 215.5 400t433.5 153q253 0 388.5 -153t99.5 -400q-35 -246 -215 -399.5t-432 -153.5q-253 0 -389 153.5t-101 399.5zM385 543q-22 -158 56.5 -256.5t226.5 -98.5q147 0 254 98.5t129 256.5q22 156 -56 254t-225 98q-148 0 -255.5 -98t-129.5 -254z M516 1448l256 102l174 -303h-209z" />
<glyph unicode="&#xf3;" horiz-adv-x="1280" d="M150 545q36 247 215.5 400t433.5 153q253 0 388.5 -153t99.5 -400q-35 -246 -215 -399.5t-432 -153.5q-253 0 -389 153.5t-101 399.5zM385 543q-22 -158 56.5 -256.5t226.5 -98.5q147 0 254 98.5t129 256.5q22 156 -56 254t-225 98q-148 0 -255.5 -98t-129.5 -254z M681 1245l261 303l227 -102l-279 -201h-209z" />
<glyph unicode="&#xf4;" horiz-adv-x="1280" d="M150 545q36 247 215.5 400t433.5 153q253 0 388.5 -153t99.5 -400q-35 -246 -215 -399.5t-432 -153.5q-253 0 -389 153.5t-101 399.5zM385 543q-22 -158 56.5 -256.5t226.5 -98.5q147 0 254 98.5t129 256.5q22 156 -56 254t-225 98q-148 0 -255.5 -98t-129.5 -254z M502 1251l252 289h218l169 -289h-193l-101 181l-153 -181h-192z" />
<glyph unicode="&#xf5;" horiz-adv-x="1280" d="M150 545q36 247 215.5 400t433.5 153q253 0 388.5 -153t99.5 -400q-35 -246 -215 -399.5t-432 -153.5q-253 0 -389 153.5t-101 399.5zM385 543q-22 -158 56.5 -256.5t226.5 -98.5q147 0 254 98.5t129 256.5q22 156 -56 254t-225 98q-148 0 -255.5 -98t-129.5 -254z M494 1284q39 268 227 268q38 0 73 -17.5t57 -38.5t48.5 -38.5t49.5 -17.5q78 0 92 100h150q-39 -268 -225 -268q-42 0 -78 17.5t-56.5 38.5t-46.5 38.5t-49 17.5q-76 0 -90 -100h-152z" />
<glyph unicode="&#xf6;" horiz-adv-x="1280" d="M150 545q36 247 215.5 400t433.5 153q253 0 388.5 -153t99.5 -400q-35 -246 -215 -399.5t-432 -153.5q-253 0 -389 153.5t-101 399.5zM385 543q-22 -158 56.5 -256.5t226.5 -98.5q147 0 254 98.5t129 256.5q22 156 -56 254t-225 98q-148 0 -255.5 -98t-129.5 -254z M539 1411q8 57 49 94t95 37t83 -37t21 -94q-8 -56 -47.5 -92.5t-93.5 -36.5t-84.5 37t-22.5 92zM902 1411q8 57 49 94t95 37t83 -37t21 -94q-8 -56 -48 -92.5t-94 -36.5t-84 36.5t-22 92.5z" />
<glyph unicode="&#xf7;" d="M156 584l23 161h877l-24 -161h-876zM420 315q8 56 48 92.5t94 36.5t84 -36.5t22 -92.5q-8 -57 -49 -94t-95 -37t-83 37t-21 94zM525 1042q8 56 47.5 92.5t93.5 36.5t84.5 -37t22.5 -92q-8 -57 -49 -94t-95 -37t-83 37t-21 94z" />
<glyph unicode="&#xf8;" horiz-adv-x="1280" d="M150 545q36 247 215.5 400t433.5 153q52 0 122 -11l127 275h107l-140 -301q152 -58 225.5 -193.5t46.5 -322.5q-35 -246 -215 -399.5t-432 -153.5q-60 0 -120 10l-141 -301h-107l154 328q-154 58 -228.5 194t-47.5 322zM373 543q-17 -117 19.5 -205t116.5 -131l329 702 q-30 6 -65 6q-154 0 -265 -103t-135 -269zM601 176q30 -6 65 -6q153 0 264 103t135 270q16 116 -20.5 204.5t-115.5 131.5z" />
<glyph unicode="&#xf9;" horiz-adv-x="1337" d="M199 412l97 678h236l-88 -613q-18 -123 39.5 -193.5t175.5 -70.5q139 3 233 98.5t115 241.5l78 537h235l-157 -1090h-235l30 213q-138 -218 -421 -221q-187 0 -276.5 112t-61.5 308zM538 1448l257 102l173 -303h-209z" />
<glyph unicode="&#xfa;" horiz-adv-x="1337" d="M199 412l97 678h236l-88 -613q-18 -123 39.5 -193.5t175.5 -70.5q139 3 233 98.5t115 241.5l78 537h235l-157 -1090h-235l30 213q-138 -218 -421 -221q-187 0 -276.5 112t-61.5 308zM704 1245l260 303l227 -102l-278 -201h-209z" />
<glyph unicode="&#xfb;" horiz-adv-x="1337" d="M199 412l97 678h236l-88 -613q-18 -123 39.5 -193.5t175.5 -70.5q139 3 233 98.5t115 241.5l78 537h235l-157 -1090h-235l30 213q-138 -218 -421 -221q-187 0 -276.5 112t-61.5 308zM522 1251l253 289h217l169 -289h-192l-101 181l-153 -181h-193z" />
<glyph unicode="&#xfc;" horiz-adv-x="1337" d="M199 412l97 678h236l-88 -613q-18 -123 39.5 -193.5t175.5 -70.5q139 3 233 98.5t115 241.5l78 537h235l-157 -1090h-235l30 213q-138 -218 -421 -221q-187 0 -276.5 112t-61.5 308zM560 1411q8 57 49 94t95 37t82.5 -37t20.5 -94q-8 -56 -47.5 -92.5t-93.5 -36.5 t-84 36.5t-22 92.5zM922 1411q8 57 49 94t95 37t83 -37t21 -94q-8 -56 -47.5 -92.5t-93.5 -36.5t-84.5 37t-22.5 92z" />
<glyph unicode="&#xfd;" horiz-adv-x="1087" d="M-50 -315l127 182q66 -53 134 -53q111 0 183 120l49 82l-296 1074h243l207 -826l422 826h236l-674 -1240q-138 -258 -392 -258q-140 0 -239 93zM589 1245l261 303l227 -102l-279 -201h-209z" />
<glyph unicode="&#xfe;" horiz-adv-x="1392" d="M127 -397l276 1917h236l-89 -619q152 197 409 197q232 0 354 -154t86 -403q-35 -245 -199 -397t-396 -152q-261 0 -357 196l-84 -585h-236zM499 549q-22 -158 56 -257t224 -99t253 99.5t130 256.5q22 153 -56.5 252.5t-224.5 99.5t-252.5 -99t-129.5 -253z" />
<glyph unicode="&#xff;" horiz-adv-x="1087" d="M-50 -315l127 182q66 -53 134 -53q111 0 183 120l49 82l-296 1074h243l207 -826l422 826h236l-674 -1240q-138 -258 -392 -258q-140 0 -239 93zM445 1411q8 57 49 94t95 37t83 -37t21 -94q-8 -56 -48 -92.5t-94 -36.5t-84 36.5t-22 92.5zM807 1411q8 57 49 94t95 37 t83 -37t21 -94q-8 -56 -47.5 -92.5t-93.5 -36.5t-84.5 37t-22.5 92z" />
<glyph unicode="&#x152;" horiz-adv-x="2246" d="M173 717q29 198 152 362.5t311 259.5t398 95h1288l-31 -217h-782l-57 -390h701l-31 -215h-701l-56 -395h806l-31 -217h-1313q-210 0 -370 94t-236.5 258.5t-47.5 364.5zM418 715q-20 -140 31.5 -254.5t160 -179t251.5 -64.5h262l144 997h-263q-218 0 -386.5 -143 t-199.5 -356z" />
<glyph unicode="&#x153;" horiz-adv-x="2129" d="M150 545q36 247 215.5 400t433.5 153q152 0 257.5 -63.5t152.5 -178.5q83 115 203.5 178.5t265.5 63.5q254 0 378 -166.5t77 -437.5h-866q-2 -144 80 -228t223 -84q182 0 328 127l106 -133q-197 -184 -481 -184q-150 0 -253.5 62.5t-150.5 178.5q-82 -115 -205 -178 t-274 -63q-253 0 -389 153.5t-101 399.5zM385 543q-22 -158 56.5 -256.5t226.5 -98.5q147 0 254 98.5t129 256.5q22 156 -56 254t-225 98q-148 0 -255.5 -98t-129.5 -254zM1285 621h631q15 134 -56.5 218.5t-204.5 84.5q-131 0 -231 -83.5t-139 -219.5z" />
<glyph unicode="&#x178;" horiz-adv-x="1304" d="M209 1434h243l309 -699l502 699h246l-664 -957l-69 -477h-239l67 469zM599 1755q8 57 49 94t95 37t83 -37t21 -94q-8 -56 -48 -92.5t-94 -36.5t-84 36.5t-22 92.5zM962 1755q8 57 48.5 94t94.5 37t83 -37t21 -94q-8 -56 -47.5 -92.5t-93.5 -36.5t-84 36.5t-22 92.5z" />
<glyph unicode="&#x2c6;" horiz-adv-x="716" d="M220 1257l253 289h217l169 -289h-192l-101 181l-153 -181h-193z" />
<glyph unicode="&#x2dc;" horiz-adv-x="716" d="M214 1284q39 268 227 268q38 0 73 -17.5t56.5 -38.5t48 -38.5t49.5 -17.5q79 0 93 100h149q-39 -268 -225 -268q-42 0 -77.5 17.5t-56 38.5t-46.5 38.5t-49 17.5q-77 0 -91 -100h-151z" />
<glyph unicode="&#x2000;" horiz-adv-x="948" />
<glyph unicode="&#x2001;" horiz-adv-x="1896" />
<glyph unicode="&#x2002;" horiz-adv-x="948" />
<glyph unicode="&#x2003;" horiz-adv-x="1896" />
<glyph unicode="&#x2004;" horiz-adv-x="632" />
<glyph unicode="&#x2005;" horiz-adv-x="474" />
<glyph unicode="&#x2006;" horiz-adv-x="316" />
<glyph unicode="&#x2007;" horiz-adv-x="316" />
<glyph unicode="&#x2008;" horiz-adv-x="237" />
<glyph unicode="&#x2009;" horiz-adv-x="379" />
<glyph unicode="&#x200a;" horiz-adv-x="105" />
<glyph unicode="&#x2010;" horiz-adv-x="753" d="M203 543l23 162h504l-23 -162h-504z" />
<glyph unicode="&#x2011;" horiz-adv-x="753" d="M203 543l23 162h504l-23 -162h-504z" />
<glyph unicode="&#x2012;" horiz-adv-x="753" d="M203 543l23 162h504l-23 -162h-504z" />
<glyph unicode="&#x2013;" horiz-adv-x="829" d="M66 461l24 162h829l-23 -162h-830z" />
<glyph unicode="&#x2014;" horiz-adv-x="1415" d="M66 461l24 162h1415l-23 -162h-1416z" />
<glyph unicode="&#x2018;" horiz-adv-x="438" d="M241 1161q8 53 52 107l143 178h121l-104 -178q50 -38 40 -107q-8 -58 -49 -94.5t-97 -36.5q-52 0 -83.5 35t-22.5 96z" />
<glyph unicode="&#x2019;" horiz-adv-x="438" d="M221 1020l103 176q-50 38 -40 107q8 58 49 94.5t97 36.5q52 0 83.5 -35t22.5 -96q-8 -53 -52 -107l-142 -176h-121z" />
<glyph unicode="&#x201a;" horiz-adv-x="438" d="M50 -168l103 178q-50 38 -40 107q8 57 49.5 94t96.5 37q52 0 83.5 -36t22.5 -95q-8 -54 -53 -109l-142 -176h-120z" />
<glyph unicode="&#x201c;" horiz-adv-x="606" d="M241 1161q8 54 53 109l142 176h121l-104 -178q50 -38 40 -107q-8 -57 -49.5 -94t-96.5 -37q-52 0 -83.5 36t-22.5 95zM546 1161q8 54 53 109l142 176h121l-104 -178q50 -38 40 -107q-8 -57 -49.5 -94t-96.5 -37q-52 0 -83.5 36t-22.5 95z" />
<glyph unicode="&#x201d;" horiz-adv-x="681" d="M221 1020l103 178q-50 38 -40 107q8 57 49.5 94t96.5 37q52 0 83.5 -36t22.5 -95q-8 -55 -52 -109l-142 -176h-121zM526 1020l103 178q-50 38 -40 107q8 57 49.5 94t96.5 37q52 0 83.5 -36t22.5 -95q-8 -55 -52 -109l-142 -176h-121z" />
<glyph unicode="&#x201e;" horiz-adv-x="743" d="M50 -168l103 178q-50 38 -40 107q8 57 49.5 94t96.5 37q52 0 83.5 -36t22.5 -95q-8 -54 -53 -109l-142 -176h-120zM355 -168l103 178q-50 38 -40 107q8 57 49.5 94t96.5 37q52 0 83.5 -36t22.5 -95q-8 -55 -52 -109l-142 -176h-121z" />
<glyph unicode="&#x2022;" horiz-adv-x="575" d="M173 549q13 88 76 144.5t146 56.5q85 0 131.5 -56.5t33.5 -144.5t-76.5 -146.5t-147.5 -58.5q-83 0 -129.5 58.5t-33.5 146.5z" />
<glyph unicode="&#x2026;" horiz-adv-x="1245" d="M110 113q8 57 48.5 93t93.5 36t82.5 -36t21.5 -93t-48.5 -94t-93.5 -37t-82.5 37t-21.5 94zM516 113q8 57 48 93t93 36t83 -36.5t22 -92.5q-8 -57 -48.5 -94t-93.5 -37t-82.5 37t-21.5 94zM921 113q8 57 48.5 93t93.5 36t82.5 -36t21.5 -93t-48.5 -94t-93.5 -37t-82.5 37 t-21.5 94z" />
<glyph unicode="&#x202f;" horiz-adv-x="379" />
<glyph unicode="&#x2039;" horiz-adv-x="565" d="M124 532l289 357h196l-270 -357l168 -356h-197z" />
<glyph unicode="&#x203a;" horiz-adv-x="589" d="M181 176l271 359l-168 356h197l186 -356l-289 -359h-197z" />
<glyph unicode="&#x205f;" horiz-adv-x="474" />
<glyph unicode="&#x20ac;" horiz-adv-x="1617" d="M145 481l19 131h193q-1 46 7 107q8 55 24 108h-193l19 131h225q107 216 320 349t464 133q152 0 287.5 -59t223.5 -162l-165 -177q-68 86 -167 134.5t-208 48.5q-146 0 -277 -72.5t-214 -194.5h514l-18 -131h-564q-19 -60 -25 -106q-8 -60 -4 -109h562l-19 -131h-514 q48 -122 158 -194t256 -72q106 0 218 45.5t208 124.5l118 -160q-125 -109 -281 -172t-308 -63q-248 0 -421 135.5t-215 355.5h-223z" />
<glyph unicode="&#x2122;" horiz-adv-x="1814" d="M175 1282l21 152h676l-22 -152h-252l-102 -709h-174l102 709h-249zM865 573l124 861h201l183 -547l341 547h201l-124 -861h-158l88 609l-323 -520h-115l-171 520l-87 -609h-160z" />
<glyph unicode="&#x25fc;" horiz-adv-x="1085" d="M0 0v1085h1085v-1085h-1085z" />
</font>
</defs>
</svg>
